<mxfile host="Electron" modified="2023-08-11T14:23:18.654Z" agent="Mozilla/5.0 (Windows NT 10.0; Win64; x64) AppleWebKit/537.36 (KHTML, like Gecko) draw.io/21.6.8 Chrome/114.0.5735.289 Electron/25.5.0 Safari/537.36" etag="u1dIZyC-ykSOYBfRDkPF" version="21.6.8" type="device">
  <diagram name="Page-1" id="JGdfaYeXalbInEALHkC5">
    <mxGraphModel dx="2058" dy="1188" grid="1" gridSize="10" guides="1" tooltips="1" connect="1" arrows="1" fold="1" page="1" pageScale="1" pageWidth="850" pageHeight="1100" math="0" shadow="0">
      <root>
        <mxCell id="0" />
        <mxCell id="1" parent="0" />
        <mxCell id="6xWr8_o8AN1xK0dyEGjv-2" value="&lt;b&gt;&lt;font style=&quot;font-size: 16px;&quot;&gt;CLI Input/Output&lt;/font&gt;&lt;/b&gt;" style="rounded=0;whiteSpace=wrap;html=1;fillColor=#f5f5f5;strokeColor=#666666;fontColor=#333333;" parent="1" vertex="1">
          <mxGeometry x="100" y="220" width="120" height="60" as="geometry" />
        </mxCell>
        <mxCell id="6xWr8_o8AN1xK0dyEGjv-3" value="&lt;b&gt;&lt;font style=&quot;font-size: 16px;&quot;&gt;Parser&lt;br&gt;&lt;/font&gt;&lt;/b&gt;" style="rounded=0;whiteSpace=wrap;html=1;fillColor=#f5f5f5;strokeColor=#666666;fontColor=#333333;" parent="1" vertex="1">
          <mxGeometry x="510" y="220" width="120" height="60" as="geometry" />
        </mxCell>
        <mxCell id="wfnkTkTtV1RLsRe25W66-1" value="&lt;b&gt;&lt;font style=&quot;font-size: 16px;&quot;&gt;REST Analyzer&lt;br&gt;&lt;/font&gt;&lt;/b&gt;" style="rounded=0;whiteSpace=wrap;html=1;fillColor=#f5f5f5;strokeColor=#666666;fontColor=#333333;" vertex="1" parent="1">
          <mxGeometry x="305" y="220" width="120" height="60" as="geometry" />
        </mxCell>
        <mxCell id="wfnkTkTtV1RLsRe25W66-2" value="&lt;b&gt;&lt;font style=&quot;font-size: 16px;&quot;&gt;Violation&lt;br&gt;&lt;/font&gt;&lt;/b&gt;" style="rounded=0;whiteSpace=wrap;html=1;fillColor=#f5f5f5;strokeColor=#666666;fontColor=#333333;" vertex="1" parent="1">
          <mxGeometry x="305" y="340" width="120" height="60" as="geometry" />
        </mxCell>
        <mxCell id="wfnkTkTtV1RLsRe25W66-3" value="&lt;b&gt;&lt;font style=&quot;font-size: 16px;&quot;&gt;Config&lt;br&gt;&lt;/font&gt;&lt;/b&gt;" style="rounded=0;whiteSpace=wrap;html=1;fillColor=#f5f5f5;strokeColor=#666666;fontColor=#333333;" vertex="1" parent="1">
          <mxGeometry x="100" y="340" width="120" height="60" as="geometry" />
        </mxCell>
        <mxCell id="wfnkTkTtV1RLsRe25W66-4" value="&lt;b&gt;&lt;font style=&quot;font-size: 16px;&quot;&gt;LOC Mapper&lt;br&gt;&lt;/font&gt;&lt;/b&gt;" style="rounded=0;whiteSpace=wrap;html=1;fillColor=#f5f5f5;strokeColor=#666666;fontColor=#333333;" vertex="1" parent="1">
          <mxGeometry x="305" y="460" width="120" height="60" as="geometry" />
        </mxCell>
        <mxCell id="wfnkTkTtV1RLsRe25W66-5" value="" style="endArrow=classic;html=1;rounded=0;strokeWidth=2;" edge="1" parent="1" source="6xWr8_o8AN1xK0dyEGjv-2" target="wfnkTkTtV1RLsRe25W66-1">
          <mxGeometry width="50" height="50" relative="1" as="geometry">
            <mxPoint x="530" y="360" as="sourcePoint" />
            <mxPoint x="580" y="310" as="targetPoint" />
          </mxGeometry>
        </mxCell>
        <mxCell id="wfnkTkTtV1RLsRe25W66-6" value="" style="endArrow=classic;html=1;rounded=0;strokeWidth=2;" edge="1" parent="1" source="wfnkTkTtV1RLsRe25W66-1" target="6xWr8_o8AN1xK0dyEGjv-3">
          <mxGeometry width="50" height="50" relative="1" as="geometry">
            <mxPoint x="440" y="210" as="sourcePoint" />
            <mxPoint x="315" y="260" as="targetPoint" />
          </mxGeometry>
        </mxCell>
        <mxCell id="wfnkTkTtV1RLsRe25W66-7" value="" style="endArrow=classic;html=1;rounded=0;strokeWidth=2;" edge="1" parent="1" source="wfnkTkTtV1RLsRe25W66-1" target="wfnkTkTtV1RLsRe25W66-2">
          <mxGeometry width="50" height="50" relative="1" as="geometry">
            <mxPoint x="240" y="270" as="sourcePoint" />
            <mxPoint x="325" y="270" as="targetPoint" />
          </mxGeometry>
        </mxCell>
        <mxCell id="wfnkTkTtV1RLsRe25W66-8" value="&lt;b&gt;&lt;font style=&quot;font-size: 16px;&quot;&gt;Report&lt;br&gt;&lt;/font&gt;&lt;/b&gt;" style="rounded=0;whiteSpace=wrap;html=1;fillColor=#f5f5f5;strokeColor=#666666;fontColor=#333333;" vertex="1" parent="1">
          <mxGeometry x="510" y="340" width="120" height="60" as="geometry" />
        </mxCell>
        <mxCell id="wfnkTkTtV1RLsRe25W66-9" value="" style="endArrow=classic;html=1;rounded=0;strokeWidth=2;" edge="1" parent="1" source="wfnkTkTtV1RLsRe25W66-2" target="wfnkTkTtV1RLsRe25W66-4">
          <mxGeometry width="50" height="50" relative="1" as="geometry">
            <mxPoint x="375" y="410" as="sourcePoint" />
            <mxPoint x="375" y="470" as="targetPoint" />
          </mxGeometry>
        </mxCell>
        <mxCell id="wfnkTkTtV1RLsRe25W66-10" value="" style="endArrow=classic;html=1;rounded=0;strokeWidth=2;" edge="1" parent="1" source="wfnkTkTtV1RLsRe25W66-1" target="wfnkTkTtV1RLsRe25W66-8">
          <mxGeometry width="50" height="50" relative="1" as="geometry">
            <mxPoint x="385" y="420" as="sourcePoint" />
            <mxPoint x="385" y="480" as="targetPoint" />
          </mxGeometry>
        </mxCell>
        <mxCell id="wfnkTkTtV1RLsRe25W66-11" value="" style="endArrow=classic;html=1;rounded=0;strokeWidth=2;" edge="1" parent="1" source="6xWr8_o8AN1xK0dyEGjv-2" target="wfnkTkTtV1RLsRe25W66-3">
          <mxGeometry width="50" height="50" relative="1" as="geometry">
            <mxPoint x="395" y="430" as="sourcePoint" />
            <mxPoint x="395" y="490" as="targetPoint" />
          </mxGeometry>
        </mxCell>
        <mxCell id="wfnkTkTtV1RLsRe25W66-12" value="&lt;b&gt;&lt;font style=&quot;font-size: 16px;&quot;&gt;Rule&lt;br&gt;&lt;/font&gt;&lt;/b&gt;" style="rounded=0;whiteSpace=wrap;html=1;fillColor=#f5f5f5;strokeColor=#666666;fontColor=#333333;" vertex="1" parent="1">
          <mxGeometry x="305" y="100" width="120" height="60" as="geometry" />
        </mxCell>
        <mxCell id="wfnkTkTtV1RLsRe25W66-13" value="" style="endArrow=classic;html=1;rounded=0;strokeWidth=2;" edge="1" parent="1" source="wfnkTkTtV1RLsRe25W66-1" target="wfnkTkTtV1RLsRe25W66-12">
          <mxGeometry width="50" height="50" relative="1" as="geometry">
            <mxPoint x="375" y="290" as="sourcePoint" />
            <mxPoint x="375" y="350" as="targetPoint" />
          </mxGeometry>
        </mxCell>
        <mxCell id="wfnkTkTtV1RLsRe25W66-14" value="&lt;b&gt;&lt;font style=&quot;font-size: 13px;&quot;&gt;Invocation&lt;/font&gt;&lt;/b&gt;" style="endArrow=classic;html=1;rounded=0;strokeWidth=2;" edge="1" parent="1">
          <mxGeometry x="0.0083" y="-20" width="50" height="50" relative="1" as="geometry">
            <mxPoint x="109.5" y="480" as="sourcePoint" />
            <mxPoint x="170" y="480" as="targetPoint" />
            <mxPoint as="offset" />
          </mxGeometry>
        </mxCell>
      </root>
    </mxGraphModel>
  </diagram>
</mxfile>
